<?xml version="1.0" standalone="no"?>
<!DOCTYPE svg PUBLIC "-//W3C//DTD SVG 20010904//EN"
 "http://www.w3.org/TR/2001/REC-SVG-20010904/DTD/svg10.dtd">
<svg version="1.0" xmlns="http://www.w3.org/2000/svg"
 width="287.000000pt" height="287.000000pt" viewBox="0 0 287.000000 287.000000"
 preserveAspectRatio="xMidYMid meet">
<metadata>
Created by potrace 1.14, written by Peter Selinger 2001-2017
</metadata>
<g transform="translate(0.000000,287.000000) scale(0.100000,-0.100000)"
fill="#000000" stroke="none">
<path d="M1264 2311 c-46 -11 -115 -47 -150 -78 -18 -16 -73 -62 -124 -103
-51 -41 -98 -80 -104 -85 -6 -6 -137 -114 -290 -240 -314 -258 -333 -275 -365
-340 -35 -71 -40 -126 -28 -290 10 -126 20 -145 195 -360 123 -150 135 -162
199 -201 55 -33 82 -39 183 -39 106 0 139 16 282 132 l103 83 39 -48 c67 -79
108 -114 166 -141 46 -22 69 -26 145 -26 79 0 97 4 148 28 31 16 63 34 70 41
6 6 61 52 122 101 119 97 152 124 169 140 6 6 47 39 91 75 44 36 107 87 140
115 33 27 82 68 109 90 214 174 231 191 266 261 l35 68 -2 129 c-2 138 -19
218 -56 272 -19 28 -161 203 -217 269 -59 69 -94 99 -148 124 -48 23 -71 27
-142 27 -116 0 -160 -19 -293 -127 -61 -49 -114 -85 -118 -81 -4 4 -30 36 -58
71 -57 69 -101 100 -175 125 -51 17 -137 21 -192 8z m192 -286 c27 -13 55 -33
61 -44 13 -21 39 2 -411 -370 -87 -72 -137 -140 -155 -216 -23 -93 4 -328 44
-392 14 -20 10 -24 -54 -77 -78 -64 -125 -86 -184 -88 -86 -1 -124 27 -263
197 -152 186 -148 179 -134 219 6 18 21 45 33 59 12 13 180 154 372 312 193
158 372 306 399 329 63 53 106 82 131 89 52 13 113 6 161 -18z m741 4 c23 -11
62 -44 85 -72 24 -29 47 -57 53 -63 15 -17 45 -53 90 -109 22 -28 48 -59 58
-70 59 -65 32 -106 -210 -305 -110 -91 -301 -248 -424 -350 -123 -101 -240
-193 -259 -202 -69 -36 -183 -14 -239 46 l-22 23 43 34 c24 18 45 36 48 39 3
3 30 25 60 50 30 25 57 47 60 50 3 3 25 21 50 41 25 20 57 48 72 61 15 13 56
46 91 73 82 64 126 122 152 200 21 62 22 73 10 215 -9 105 -11 118 -38 171
l-23 47 65 53 c35 29 80 61 100 71 48 24 124 23 178 -3z m-486 -281 c10 -13
28 -38 40 -55 l20 -33 -26 -47 c-14 -27 -41 -59 -59 -73 -18 -14 -55 -44 -82
-67 -40 -34 -158 -132 -399 -329 l-30 -25 -37 43 c-47 54 -48 84 -5 138 25 32
541 468 555 470 2 0 12 -10 23 -22z"/>
</g>
</svg>
